<?xml version="1.0" encoding="UTF-8" standalone="no"?>
<svg
   width="256"
   height="256"
   viewBox="0 0 256 256"
   version="1.1"
   id="svg1"
   xmlns="http://www.w3.org/2000/svg"
   xmlns:svg="http://www.w3.org/2000/svg">
  <defs
     id="defs1" />
  <g
     transform="translate(128 128)"
     id="g1">
    <rect
       x="-92"
       y="-92"
       width="184"
       height="184"
       rx="22"
       transform="rotate(45)"
       fill="#2f8f4e"
       stroke="#1f5f34"
       stroke-width="10"
       id="rect1" />
  </g>
  <path
     d="m 132.86133,181.5625 q -18.45703,10.63477 -45.878908,10.63477 -30.410156,0 -47.988281,-16.78711 -17.490235,-16.875 -17.490235,-46.40625 0,-29.707035 19.160156,-48.427738 19.160157,-18.720703 50.976563,-18.720703 20.039065,0 35.332035,5.537109 v 26.630859 q -14.58985,-8.4375 -35.683598,-8.4375 -17.666015,0 -28.828125,11.513672 -11.074218,11.425781 -11.074218,30.585941 0,19.42382 9.93164,30.05859 10.019532,10.63477 26.982422,10.63477 10.195313,0 16.171879,-2.90039 V 140.86914 H 79.248047 v -22.67578 h 53.613283 z m 39.91015,-34.98047 V 190 H 144.38281 V 63.964844 h 44.47266 q 47.63672,0 47.63672,40.166016 0,18.98437 -13.71094,30.76172 -13.62305,11.68945 -36.47461,11.68945 z m 0,-60.820311 v 39.287111 h 11.16211 q 22.67578,0 22.67578,-19.86328 0,-19.423831 -22.67578,-19.423831 z"
     id="text1"
     style="font-weight:700;font-size:180px;font-family:'Segoe UI', Arial, sans-serif;letter-spacing:-13;fill:#b8b8b8;stroke:#111111;stroke-width:9;paint-order:stroke fill"
     aria-label="GP" />
</svg>
